# Blender 4.2.2 LTS
# www.blender.org
mtllib Cockpit.mtl
o Cube.005
v -0.062500 0.850000 0.070000
v -0.062500 0.950000 0.070000
v -0.062500 0.850000 -0.070000
v -0.062500 0.950000 -0.070000
v 0.062500 0.950000 0.070000
v 0.062500 0.950000 -0.070000
v -0.031250 0.850000 0.070000
v 0.062500 0.925000 0.070000
v 0.062500 0.925000 -0.070000
v -0.031250 0.850000 -0.070000
v -0.012500 0.950000 -0.210000
v -0.012500 0.850000 -0.210000
v 0.112500 0.950000 -0.210000
v 0.018750 0.850000 -0.210000
v 0.112500 0.925000 -0.210000
v -0.012500 0.850000 0.210000
v -0.012500 0.950000 0.210000
v 0.112500 0.950000 0.210000
v 0.112500 0.925000 0.210000
v 0.018750 0.850000 0.210000
v -0.200000 0.750000 0.462500
v -0.200000 0.750000 0.487500
v -0.200000 0.500000 0.462500
v -0.200000 0.500000 0.487500
v -0.139270 0.718499 0.462500
v -0.139270 0.718499 0.487500
v -0.150000 0.500000 0.462500
v -0.150000 0.500000 0.487500
v -0.152211 0.766796 0.487500
v -0.152211 0.766796 0.462500
v 0.094889 0.850882 0.487500
v 0.094889 0.850882 0.462500
v 0.094889 0.900882 0.487500
v 0.094889 0.900882 0.462500
v 0.344889 0.850882 0.487500
v 0.344889 0.850882 0.462500
v 0.344889 0.900882 0.487500
v 0.344889 0.900882 0.462500
v -0.250000 0.000000 0.250000
v -0.250000 0.500000 0.250000
v -0.250000 0.000000 -0.250000
v -0.250000 0.500000 -0.250000
v 0.250000 0.000000 0.250000
v -0.200000 0.000000 -0.500000
v 0.250000 0.000000 -0.250000
v -0.200000 0.500000 -0.500000
v 0.250000 0.250000 0.250000
v 0.000000 0.500000 0.250000
v 0.000000 0.500000 -0.250000
v 0.250000 0.250000 -0.250000
v 0.300000 0.000000 -0.500000
v 0.300000 0.250000 -0.500000
v 0.050000 0.500000 -0.500000
v -0.250000 0.000000 0.500000
v -0.200000 0.500000 0.500000
v 0.300000 0.000000 0.500000
v 0.300000 0.250000 0.500000
v 0.050000 0.500000 0.500000
v 0.000000 0.000000 0.750000
v 0.050000 0.500000 0.750000
v 0.550000 0.000000 0.750000
v 0.300000 0.500000 0.750000
v 0.550000 0.250000 0.750000
v 0.050000 0.000000 -0.750000
v 0.050000 0.500000 -0.750000
v 0.550000 0.000000 -0.750000
v 0.550000 0.250000 -0.750000
v 0.300000 0.500000 -0.750000
v -0.250000 0.000000 0.000000
v -0.250000 0.462500 0.000000
v 0.250000 0.000000 0.000000
v 0.000000 0.462500 0.000000
v 0.250000 0.250000 0.000000
v -0.250000 0.000000 0.125000
v 0.000000 0.462500 0.125000
v -0.250000 0.462500 0.125000
v 0.250000 0.000000 0.125000
v 0.250000 0.250000 0.125000
v -0.250000 0.462500 -0.125000
v 0.250000 0.000000 -0.125000
v 0.250000 0.250000 -0.125000
v -0.250000 0.000000 -0.125000
v 0.000000 0.462500 -0.125000
v -0.250000 0.000000 0.187500
v 0.000000 0.500000 0.187500
v -0.250000 0.500000 0.187500
v 0.250000 0.000000 0.187500
v 0.250000 0.250000 0.187500
v -0.250000 0.500000 -0.187500
v 0.250000 0.000000 -0.187500
v 0.250000 0.250000 -0.187500
v -0.250000 0.000000 -0.187500
v 0.000000 0.500000 -0.187500
v -0.200000 0.750000 -0.487500
v -0.200000 0.750000 -0.462500
v -0.200000 0.500000 -0.487500
v -0.200000 0.500000 -0.462500
v -0.139270 0.718499 -0.487500
v -0.139270 0.718499 -0.462500
v -0.150000 0.500000 -0.487500
v -0.150000 0.500000 -0.462500
v -0.152211 0.766796 -0.462500
v -0.152211 0.766796 -0.487500
v 0.094889 0.850882 -0.462500
v 0.094889 0.850882 -0.487500
v 0.094889 0.900882 -0.462500
v 0.094889 0.900882 -0.487500
v 0.344889 0.850882 -0.462500
v 0.344889 0.850882 -0.487500
v 0.344889 0.900882 -0.462500
v 0.344889 0.900882 -0.487500
v -0.062500 0.187500 -0.206250
v -0.062500 0.312500 -0.206250
v -0.062500 0.187500 -0.268750
v -0.062500 0.312500 -0.268750
v 0.062500 0.187500 -0.206250
v 0.062500 0.312500 -0.206250
v 0.062500 0.187500 -0.268750
v 0.062500 0.312500 -0.268750
v -0.250000 0.750000 -0.237500
v -0.250000 0.750000 -0.212500
v -0.250000 0.500000 -0.237500
v -0.250000 0.500000 -0.212500
v -0.189270 0.718499 -0.237500
v -0.189270 0.718499 -0.212500
v -0.200000 0.500000 -0.237500
v -0.200000 0.500000 -0.212500
v -0.202211 0.766796 -0.212500
v -0.202211 0.766796 -0.237500
v 0.046593 0.863823 -0.212500
v 0.046593 0.863823 -0.237500
v 0.046593 0.913823 -0.212500
v 0.046593 0.913823 -0.237500
v 0.296593 0.863823 -0.212500
v 0.296593 0.863823 -0.237500
v 0.296593 0.913823 -0.212500
v 0.296593 0.913823 -0.237500
v -0.250000 0.750000 0.212500
v -0.250000 0.750000 0.237500
v -0.250000 0.500000 0.212500
v -0.250000 0.500000 0.237500
v -0.189270 0.718499 0.212500
v -0.189270 0.718499 0.237500
v -0.200000 0.500000 0.212500
v -0.200000 0.500000 0.237500
v -0.202211 0.766796 0.237500
v -0.202211 0.766796 0.212500
v 0.046593 0.863823 0.237500
v 0.046593 0.863823 0.212500
v 0.046593 0.913823 0.237500
v 0.046593 0.913823 0.212500
v 0.296593 0.863823 0.237500
v 0.296593 0.863823 0.212500
v 0.296593 0.913823 0.237500
v 0.296593 0.913823 0.212500
vn -1.0000 -0.0000 -0.0000
vn 0.9417 -0.0000 -0.3363
vn -0.9417 -0.0000 -0.3363
vn 1.0000 -0.0000 -0.0000
vn -0.0000 1.0000 -0.0000
vn 0.6247 -0.7809 -0.0000
vn -0.0000 -1.0000 -0.0000
vn -0.0000 -0.0000 -1.0000
vn 0.9417 -0.0000 0.3363
vn 0.6097 -0.7621 0.2178
vn -0.0000 -0.0000 1.0000
vn -0.9417 -0.0000 0.3363
vn 0.6097 -0.7621 -0.2178
vn -0.9988 0.0490 -0.0000
vn 0.3316 -0.9434 -0.0000
vn 0.4769 -0.8789 -0.0000
vn -0.4921 0.8705 -0.0000
vn 0.5774 0.5774 0.5774
vn 0.7001 0.7001 -0.1400
vn 0.7071 0.7071 -0.0000
vn 0.9806 -0.0000 0.1961
vn -0.9806 -0.0000 -0.1961
vn 0.7001 0.7001 0.1400
vn 0.7071 -0.0000 -0.7071
vn -0.9759 0.0976 0.1952
vn 0.9806 -0.0000 -0.1961
vn 0.5774 0.5774 -0.5774
vn -0.7053 0.0705 0.7053
vn 0.7071 -0.0000 0.7071
vn -0.7071 -0.0000 -0.7071
vn 0.6476 0.7619 -0.0000
vn 0.6509 0.6509 0.3906
vn -0.0000 0.8575 0.5145
vn -0.0000 0.8575 -0.5145
vn 0.5087 -0.8609 -0.0000
vn -0.5246 0.8514 -0.0000
vn 0.6509 0.6509 -0.3906
vt 0.044176 0.800164
vt 0.000000 0.844344
vt 0.000000 0.800167
vt 0.663122 0.675390
vt 0.674167 0.631211
vt 0.674167 0.675390
vt 0.044176 0.844342
vt 0.000175 0.888618
vt 0.663122 0.719568
vt 0.674167 0.719568
vt 0.379403 0.826768
vt 0.423581 0.782589
vt 0.423581 0.826768
vt 0.368389 0.826768
vt 0.332892 0.782589
vt 0.368389 0.782589
vt 0.379403 0.782589
vt 0.379403 0.826768
vt 0.697407 0.314901
vt 0.708452 0.270723
vt 0.741585 0.303857
vt 0.397074 0.870946
vt 0.663122 0.763747
vt 0.361780 0.870946
vt 0.350766 0.870946
vt 0.332892 0.826768
vt 0.315269 0.870946
vt 0.752630 0.314901
vt 0.741585 0.270723
vt 0.785764 0.270723
vt 0.044352 0.756082
vt 0.361780 0.738411
vt 0.397074 0.738411
vt 0.441253 0.738411
vt 0.350766 0.738411
vt 0.449673 0.671351
vt 0.441784 0.781797
vt 0.441784 0.671351
vt 0.172153 0.817932
vt 0.180042 0.800261
vt 0.180042 0.817932
vt 0.207654 0.852646
vt 0.215543 0.756082
vt 0.215543 0.852645
vt 0.245543 0.919912
vt 0.220892 0.926745
vt 0.226541 0.909183
vt 0.832019 0.577241
vt 0.890024 0.497153
vt 0.914675 0.503986
vt 0.303548 1.000000
vt 0.315269 0.986775
vt 0.909026 0.486424
vt 0.457562 0.652934
vt 0.465451 0.670327
vt 0.457562 0.670327
vt 0.256665 0.819187
vt 0.878902 0.396427
vt 0.836830 0.315651
vt 0.895434 0.381776
vt 0.465451 0.561454
vt 0.465451 0.652934
vt 0.465451 0.841442
vt 0.473340 0.758684
vt 0.473340 0.841442
vt 0.805486 0.292811
vt 0.813375 0.270723
vt 0.813375 0.292812
vt 0.465451 0.758684
vt 0.473340 0.670327
vt 0.298738 0.738411
vt 0.315269 0.753062
vt 0.457562 0.561454
vt 0.465451 0.473340
vt 0.697232 0.216933
vt 0.476350 0.236667
vt 0.476350 0.216944
vt 0.779280 0.451013
vt 0.738261 0.348466
vt 0.820298 0.315651
vt 0.586796 0.394541
vt 0.476350 0.315651
vt 0.586796 0.315651
vt 0.105737 0.315560
vt 0.264342 0.394450
vt 0.088114 0.394450
vt 0.105737 0.177503
vt 0.281965 0.157780
vt 0.281965 0.177503
vt 0.586796 0.414264
vt 0.697242 0.394541
vt 0.697242 0.414264
vt 0.476350 0.394541
vt 0.476350 0.414264
vt 0.370322 0.157780
vt 0.370322 0.177503
vt 0.697242 0.552321
vt 0.586796 0.631211
vt 0.586796 0.552321
vt 0.370322 0.315560
vt 0.299637 0.394450
vt 0.281965 0.315560
vt 0.697232 0.236655
vt 0.476526 0.315651
vt 0.476350 0.631211
vt 0.476350 0.552321
vt 0.738426 0.135361
vt 0.779444 0.270723
vt 0.697407 0.237908
vt 0.697232 0.078877
vt 0.476350 0.000000
vt 0.697407 0.000084
vt 0.105737 0.157780
vt 0.281965 0.078890
vt 0.697242 0.315651
vt 0.299637 0.078890
vt 0.387994 0.078890
vt 0.110446 0.756082
vt -0.000000 0.579368
vt 0.220892 0.561697
vt 0.779444 0.032815
vt 0.820463 0.168176
vt 0.000000 0.491012
vt 0.387994 0.000000
vt 0.476350 0.000000
vt 0.088114 0.078890
vt 0.193851 -0.000000
vt 0.220892 0.650054
vt 0.331338 0.473340
vt 0.441784 0.473340
vt 0.387994 0.394450
vt 0.387994 0.473340
vt 0.176228 0.473340
vt -0.000000 0.473340
vt 0.820298 0.553559
vt 0.697243 0.483828
vt 0.220892 0.738411
vt 0.441784 0.650054
vt 0.441784 0.738411
vt 0.281965 0.276115
vt 0.370322 0.236670
vt 0.370322 0.276115
vt 0.492917 0.473431
vt 0.586796 0.512876
vt 0.492917 0.512876
vt 0.697242 0.473431
vt 0.697242 0.512876
vt 0.105737 0.276115
vt 0.281965 0.236670
vt 0.680666 0.118322
vt 0.476350 0.157778
vt 0.476350 0.118333
vt 0.476350 0.098611
vt 0.370322 0.197225
vt 0.492917 0.433986
vt 0.586796 0.473431
vt 0.697242 0.433986
vt 0.105737 0.236670
vt 0.281965 0.197225
vt 0.105737 0.295838
vt 0.281965 0.295838
vt 0.586796 0.532599
vt 0.697242 0.532599
vt 0.476350 0.532599
vt 0.370322 0.295838
vt 0.680666 0.157767
vt 0.476350 0.197222
vt 0.476350 0.078889
vt 0.586796 0.433986
vt 0.105737 0.197225
vt 0.680666 0.197211
vt 0.457562 0.671351
vt 0.449673 0.781797
vt 0.180042 0.817932
vt 0.187931 0.800261
vt 0.187931 0.817932
vt 0.663122 0.860310
vt 0.671011 0.763747
vt 0.671011 0.860309
vt 0.832184 0.261589
vt 0.890189 0.181502
vt 0.914840 0.188334
vt 0.966670 0.847963
vt 0.908665 0.767876
vt 0.978391 0.834738
vt 0.909190 0.170773
vt 0.879067 0.080776
vt 0.895598 0.066125
vt 0.884014 0.774708
vt 0.889664 0.757147
vt 0.919787 0.667150
vt 0.961860 0.586374
vt 0.978391 0.601025
vt 0.473340 0.561454
vt 0.473340 0.652934
vt 0.457562 0.841442
vt 0.465451 0.758684
vt 0.805486 0.314900
vt 0.813375 0.292812
vt 0.813375 0.314900
vt 0.457562 0.758684
vt 0.465451 0.670327
vt 0.836994 0.000000
vt 0.473340 0.473340
vt 0.152431 0.756082
vt 0.172153 0.811304
vt 0.152431 0.811302
vt 0.044352 0.756082
vt 0.088530 0.811305
vt 0.044352 0.811305
vt 0.132708 0.756082
vt 0.152431 0.811305
vt 0.132708 0.811305
vt 0.088530 0.756082
vt 0.132708 0.811305
vt 0.088530 0.811305
vt 0.785764 0.270723
vt 0.805486 0.314780
vt 0.785764 0.314780
vt 0.191876 0.800261
vt 0.172153 0.756082
vt 0.191876 0.756082
vt 0.199765 0.756082
vt 0.191876 0.866528
vt 0.191876 0.756082
vt 0.674167 0.820600
vt 0.682056 0.802929
vt 0.682056 0.820600
vt 0.441784 0.878361
vt 0.449673 0.781797
vt 0.449673 0.878360
vt 0.501109 0.816127
vt 0.476350 0.822557
vt 0.482285 0.805090
vt 0.581671 0.897150
vt 0.638363 0.816127
vt 0.663122 0.822557
vt 0.557801 0.897150
vt 0.569736 0.884117
vt 0.657187 0.805090
vt 0.441784 0.653958
vt 0.449673 0.671351
vt 0.441784 0.671351
vt 0.510062 0.711291
vt 0.441784 0.561454
vt 0.449673 0.473340
vt 0.449673 0.561454
vt 0.629411 0.711291
vt 0.645701 0.696372
vt 0.449673 0.653958
vt 0.674167 0.802929
vt 0.682056 0.719568
vt 0.813375 0.292811
vt 0.821264 0.270723
vt 0.821264 0.292812
vt 0.586027 0.631211
vt 0.674167 0.719568
vt 0.682056 0.631211
vt 0.553446 0.631211
vt 0.569736 0.646130
vt 0.207654 0.756082
vt 0.199765 0.866528
vt 0.689945 0.802929
vt 0.689945 0.820600
vt 0.449673 0.878361
vt 0.457562 0.781797
vt 0.457562 0.878360
vt 0.722001 0.771290
vt 0.697242 0.777720
vt 0.703177 0.760253
vt 0.802563 0.852312
vt 0.859255 0.771290
vt 0.884014 0.777720
vt 0.778693 0.852313
vt 0.790628 0.839280
vt 0.878079 0.760253
vt 0.449673 0.653958
vt 0.730954 0.666454
vt 0.850303 0.666453
vt 0.806919 0.586374
vt 0.866593 0.651535
vt 0.457562 0.561454
vt 0.457562 0.653958
vt 0.682056 0.802929
vt 0.689945 0.719568
vt 0.813375 0.314900
vt 0.821264 0.292812
vt 0.821264 0.314900
vt 0.682056 0.719568
vt 0.689945 0.631211
vt 0.774338 0.586374
vt 0.790628 0.601293
vt 0.449673 0.561454
vt 0.457562 0.473340
vt 0.663122 0.631211
vt 0.044352 0.888616
vt 0.379403 0.782589
vt 0.741585 0.314901
vt 0.697407 0.270723
vt 0.441253 0.870946
vt 0.674167 0.763747
vt 0.785764 0.281768
vt 0.741585 0.314901
vt 0.000175 0.756085
vt 0.315269 0.738411
vt 0.172153 0.800261
vt 0.207654 0.756083
vt 0.820298 0.564016
vt 0.240134 0.804536
vt 0.820298 0.330302
vt 0.805486 0.270723
vt 0.457562 0.473340
vt 0.281965 0.157780
vt 0.697242 0.631211
vt 0.697407 0.315639
vt 0.220892 0.756082
vt -0.000000 0.667725
vt 0.697407 -0.000000
vt 0.220892 0.473340
vt 0.000000 -0.000000
vt 0.220892 0.561697
vt 0.476350 0.473340
vt 0.738261 0.586374
vt 0.697232 0.098599
vt 0.457562 0.781797
vt 0.180042 0.800261
vt 0.663122 0.763748
vt 0.820463 0.248364
vt 0.903256 0.652499
vt 0.805486 0.292812
vt 0.457562 0.670327
vt 0.820463 0.014651
vt 0.172153 0.756083
vt 0.088530 0.756082
vt 0.132708 0.756082
vt 0.172153 0.800261
vt 0.199765 0.866528
vt 0.674167 0.802929
vt 0.441784 0.781798
vt 0.569736 0.884117
vt 0.493772 0.696372
vt 0.441784 0.473340
vt 0.813375 0.270723
vt 0.569736 0.646130
vt 0.674167 0.631211
vt 0.207654 0.866528
vt 0.449673 0.781798
vt 0.790628 0.839280
vt 0.714664 0.651535
vt 0.790628 0.601293
vt 0.813375 0.292812
vt 0.682056 0.631211
vt 0.449673 0.473340
s 0
usemtl Material
f 2/1/1 3/2/1 1/3/1
f 5/4/2 19/5/2 8/6/2
f 4/7/3 12/8/3 3/2/3
f 6/9/4 8/6/4 9/10/4
f 4/11/5 5/12/5 6/13/5
f 10/14/6 8/15/6 7/16/6
f 10/14/7 1/17/7 3/18/7
f 11/19/8 15/20/8 14/21/8
f 6/13/5 11/22/5 4/11/5
f 9/10/9 13/23/9 6/9/9
f 10/14/7 12/24/7 14/25/7
f 9/26/10 14/25/10 15/27/10
f 19/28/11 17/29/11 16/30/11
f 1/3/12 17/31/12 2/1/12
f 7/16/7 16/32/7 1/17/7
f 5/12/5 17/33/5 18/34/5
f 8/15/13 20/35/13 7/16/13
f 22/36/4 23/37/4 21/38/4
f 24/39/5 27/40/5 23/41/5
f 28/42/14 25/43/14 27/44/14
f 26/45/8 22/46/8 29/47/8
f 23/48/11 25/49/11 21/50/11
f 24/51/8 26/45/8 28/52/8
f 25/49/11 30/53/11 21/50/11
f 30/54/15 22/55/15 21/56/15
f 29/47/8 31/57/8 26/45/8
f 32/58/11 38/59/11 34/60/11
f 30/53/11 32/58/11 34/60/11
f 30/54/16 33/61/16 29/62/16
f 26/63/17 32/64/17 25/65/17
f 35/66/1 38/67/1 36/68/1
f 31/69/5 36/70/5 32/64/5
f 31/57/8 37/71/8 35/72/8
f 34/73/7 37/74/7 33/61/7
f 89/75/1 41/76/1 92/77/1
f 52/78/18 68/79/18 53/80/18
f 47/81/19 58/82/19 57/83/19
f 45/84/7 44/85/7 51/86/7
f 87/87/7 39/88/7 84/89/7
f 88/90/4 43/91/4 87/92/4
f 48/93/20 88/90/20 85/94/20
f 86/89/5 48/95/5 85/96/5
f 45/97/21 52/98/21 50/99/21
f 49/100/5 46/101/5 42/102/5
f 42/103/22 44/104/22 41/76/22
f 50/99/23 53/105/23 49/106/23
f 57/107/24 61/108/24 56/109/24
f 40/110/25 54/111/25 55/112/25
f 43/113/7 54/114/7 39/88/7
f 47/81/26 56/115/26 43/91/26
f 48/95/5 55/116/5 58/117/5
f 63/118/11 60/119/11 59/120/11
f 57/107/27 62/121/27 63/122/27
f 55/123/28 59/120/28 60/119/28
f 58/117/5 60/124/5 62/125/5
f 56/126/7 59/127/7 54/114/7
f 65/128/8 67/129/8 66/130/8
f 53/131/5 65/132/5 46/101/5
f 51/86/7 64/133/7 66/134/7
f 51/135/29 67/136/29 52/78/29
f 46/137/30 64/138/30 44/139/30
f 79/140/5 72/141/5 83/142/5
f 72/143/31 81/144/31 83/145/31
f 81/144/4 71/146/4 80/147/4
f 80/148/7 69/149/7 82/140/7
f 76/150/1 69/151/1 74/152/1
f 84/153/1 76/150/1 74/152/1
f 70/149/5 75/154/5 72/141/5
f 75/155/31 73/156/31 72/143/31
f 73/156/4 77/157/4 71/146/4
f 71/158/7 74/159/7 69/149/7
f 90/160/7 82/140/7 92/161/7
f 91/162/4 80/147/4 90/163/4
f 83/145/32 91/162/32 93/164/32
f 89/161/33 83/142/33 93/165/33
f 70/166/1 82/167/1 69/151/1
f 40/110/1 84/153/1 39/168/1
f 76/159/34 85/96/34 75/154/34
f 75/155/31 88/90/31 78/169/31
f 78/169/4 87/92/4 77/157/4
f 77/170/7 84/89/7 74/159/7
f 42/102/5 93/165/5 49/100/5
f 93/164/20 50/99/20 49/106/20
f 50/99/4 90/163/4 45/97/4
f 45/84/7 92/161/7 41/102/7
f 79/171/1 92/77/1 82/167/1
f 95/172/4 96/173/4 94/36/4
f 97/174/5 100/175/5 96/176/5
f 101/177/14 98/178/14 100/179/14
f 96/180/11 98/181/11 94/182/11
f 97/183/8 99/184/8 101/185/8
f 103/186/11 105/187/11 107/188/11
f 103/62/15 95/70/15 94/55/15
f 98/181/11 103/186/11 94/182/11
f 99/184/8 95/189/8 102/190/8
f 104/191/8 110/192/8 108/193/8
f 103/62/16 106/194/16 102/195/16
f 102/190/8 104/191/8 99/184/8
f 99/196/17 105/197/17 98/63/17
f 108/198/1 111/199/1 109/200/1
f 104/201/5 109/202/5 105/197/5
f 105/187/11 111/203/11 107/188/11
f 107/61/7 110/204/7 106/194/7
f 113/205/1 114/206/1 112/207/1
f 115/208/8 118/209/8 114/210/8
f 119/211/4 116/212/4 118/213/4
f 117/214/11 112/215/11 116/216/11
f 118/217/7 112/218/7 114/219/7
f 115/220/5 117/221/5 119/222/5
f 121/223/4 122/224/4 120/225/4
f 123/226/5 126/227/5 122/228/5
f 127/229/14 124/230/14 126/231/14
f 125/232/8 121/233/8 128/234/8
f 122/235/11 124/236/11 120/237/11
f 123/238/8 125/232/8 127/239/8
f 124/236/11 129/240/11 120/237/11
f 129/241/15 121/242/15 120/243/15
f 128/234/8 130/244/8 125/232/8
f 133/245/7 136/246/7 132/247/7
f 129/240/11 131/248/11 133/249/11
f 129/241/35 132/247/35 128/250/35
f 125/251/36 131/252/36 124/227/36
f 134/253/1 137/254/1 135/255/1
f 131/248/11 137/256/11 133/249/11
f 130/257/5 135/258/5 131/252/5
f 130/244/8 136/259/8 134/260/8
f 139/261/4 140/262/4 138/223/4
f 141/228/5 144/263/5 140/264/5
f 145/265/14 142/266/14 144/267/14
f 143/268/8 139/269/8 146/270/8
f 140/271/11 142/272/11 138/273/11
f 141/274/8 143/268/8 145/275/8
f 142/272/11 147/276/11 138/273/11
f 147/277/15 139/172/15 138/36/15
f 146/270/8 148/278/8 143/268/8
f 149/279/11 155/280/11 151/281/11
f 147/276/11 149/279/11 151/281/11
f 147/277/35 150/282/35 146/283/35
f 143/284/36 149/285/36 142/263/36
f 152/286/1 155/287/1 153/288/1
f 148/289/5 153/290/5 149/285/5
f 148/278/8 154/291/8 152/292/8
f 151/293/7 154/294/7 150/282/7
f 2/1/1 4/7/1 3/2/1
f 5/4/2 18/295/2 19/5/2
f 4/7/3 11/296/3 12/8/3
f 6/9/4 5/4/4 8/6/4
f 4/11/5 2/297/5 5/12/5
f 10/14/6 9/26/6 8/15/6
f 10/14/7 7/16/7 1/17/7
f 14/21/8 12/298/8 11/19/8
f 11/19/8 13/299/8 15/20/8
f 6/13/5 13/300/5 11/22/5
f 9/10/9 15/301/9 13/23/9
f 10/14/7 3/18/7 12/24/7
f 9/26/10 10/14/10 14/25/10
f 16/30/11 20/302/11 19/28/11
f 19/28/11 18/303/11 17/29/11
f 1/3/12 16/304/12 17/31/12
f 7/16/7 20/35/7 16/32/7
f 5/12/5 2/297/5 17/33/5
f 8/15/13 19/305/13 20/35/13
f 22/36/4 24/173/4 23/37/4
f 24/39/5 28/306/5 27/40/5
f 28/42/14 26/307/14 25/43/14
f 23/48/11 27/308/11 25/49/11
f 24/51/8 22/46/8 26/45/8
f 30/54/15 29/62/15 22/55/15
f 29/47/8 33/309/8 31/57/8
f 32/58/11 36/310/11 38/59/11
f 30/53/11 25/49/11 32/58/11
f 30/54/16 34/73/16 33/61/16
f 26/63/17 31/69/17 32/64/17
f 35/66/1 37/311/1 38/67/1
f 31/69/5 35/55/5 36/70/5
f 31/57/8 33/309/8 37/71/8
f 34/73/7 38/312/7 37/74/7
f 89/75/1 42/103/1 41/76/1
f 52/78/18 67/136/18 68/79/18
f 47/81/19 48/93/19 58/82/19
f 45/84/7 41/102/7 44/85/7
f 87/87/7 43/113/7 39/88/7
f 88/90/4 47/81/4 43/91/4
f 48/93/20 47/81/20 88/90/20
f 86/89/5 40/313/5 48/95/5
f 45/97/21 51/314/21 52/98/21
f 49/100/5 53/131/5 46/101/5
f 42/103/22 46/315/22 44/104/22
f 50/99/23 52/98/23 53/105/23
f 57/107/24 63/122/24 61/108/24
f 40/110/1 39/168/1 54/111/1
f 43/113/7 56/126/7 54/114/7
f 47/81/26 57/83/26 56/115/26
f 48/95/5 40/313/5 55/116/5
f 59/120/11 61/316/11 63/118/11
f 63/118/11 62/317/11 60/119/11
f 57/107/27 58/318/27 62/121/27
f 55/123/28 54/319/28 59/120/28
f 58/117/5 55/116/5 60/124/5
f 56/126/7 61/320/7 59/127/7
f 66/130/8 64/138/8 65/128/8
f 65/128/8 68/321/8 67/129/8
f 53/131/5 68/322/5 65/132/5
f 51/86/7 44/85/7 64/133/7
f 51/135/29 66/323/29 67/136/29
f 46/137/30 65/128/30 64/138/30
f 79/140/5 70/149/5 72/141/5
f 72/143/31 73/156/31 81/144/31
f 81/144/4 73/156/4 71/146/4
f 80/148/7 71/158/7 69/149/7
f 76/150/1 70/166/1 69/151/1
f 84/153/1 86/324/1 76/150/1
f 70/149/5 76/159/5 75/154/5
f 75/155/31 78/169/31 73/156/31
f 73/156/4 78/169/4 77/157/4
f 71/158/7 77/170/7 74/159/7
f 90/160/7 80/148/7 82/140/7
f 91/162/4 81/144/4 80/147/4
f 83/145/31 81/144/31 91/162/31
f 89/161/33 79/140/33 83/142/33
f 70/166/1 79/171/1 82/167/1
f 40/110/1 86/324/1 84/153/1
f 76/159/34 86/89/34 85/96/34
f 75/155/37 85/94/37 88/90/37
f 78/169/4 88/90/4 87/92/4
f 77/170/7 87/87/7 84/89/7
f 42/102/5 89/161/5 93/165/5
f 93/164/20 91/162/20 50/99/20
f 50/99/4 91/162/4 90/163/4
f 45/84/7 90/160/7 92/161/7
f 79/171/1 89/75/1 92/77/1
f 95/172/4 97/325/4 96/173/4
f 97/174/5 101/326/5 100/175/5
f 101/177/14 99/327/14 98/178/14
f 96/180/11 100/328/11 98/181/11
f 97/183/8 95/189/8 99/184/8
f 103/186/11 98/181/11 105/187/11
f 103/62/15 102/195/15 95/70/15
f 104/191/8 106/329/8 110/192/8
f 103/62/16 107/61/16 106/194/16
f 102/190/8 106/329/8 104/191/8
f 99/196/17 104/201/17 105/197/17
f 108/198/1 110/330/1 111/199/1
f 104/201/5 108/331/5 109/202/5
f 105/187/11 109/332/11 111/203/11
f 107/61/7 111/74/7 110/204/7
f 113/205/1 115/333/1 114/206/1
f 115/208/8 119/334/8 118/209/8
f 119/211/4 117/205/4 116/212/4
f 117/214/11 113/335/11 112/215/11
f 118/217/7 116/311/7 112/218/7
f 115/220/5 113/336/5 117/221/5
f 121/223/4 123/337/4 122/224/4
f 123/226/5 127/338/5 126/227/5
f 127/229/14 125/339/14 124/230/14
f 122/235/11 126/340/11 124/236/11
f 123/238/8 121/233/8 125/232/8
f 129/241/15 128/250/15 121/242/15
f 128/234/8 132/341/8 130/244/8
f 133/245/7 137/342/7 136/246/7
f 129/240/11 124/236/11 131/248/11
f 129/241/35 133/245/35 132/247/35
f 125/251/36 130/257/36 131/252/36
f 134/253/1 136/343/1 137/254/1
f 131/248/11 135/344/11 137/256/11
f 130/257/5 134/345/5 135/258/5
f 130/244/8 132/341/8 136/259/8
f 139/261/4 141/346/4 140/262/4
f 141/228/5 145/227/5 144/263/5
f 145/265/14 143/347/14 142/266/14
f 140/271/11 144/348/11 142/272/11
f 141/274/8 139/269/8 143/268/8
f 147/277/15 146/283/15 139/172/15
f 146/270/8 150/349/8 148/278/8
f 149/279/11 153/350/11 155/280/11
f 147/276/11 142/272/11 149/279/11
f 147/277/35 151/293/35 150/282/35
f 143/284/36 148/289/36 149/285/36
f 152/286/1 154/351/1 155/287/1
f 148/289/5 152/352/5 153/290/5
f 148/278/8 150/349/8 154/291/8
f 151/293/7 155/353/7 154/294/7
